<svg id="Layer_1" data-name="Layer 1" xmlns="http://www.w3.org/2000/svg" viewBox="0 0 500 500">
  <title>logomark</title>
  <g>
    <path d="M292.19,254.71a19.87,19.87,0,0,0-19.87,19.87v163a5.4,5.4,0,0,1-5.41,5.41H232.57a5.41,5.41,0,0,1-5.41-5.41V254.74c0-1.37.06-2.72.19-4.06a49,49,0,0,1,44.79-44.81,39.28,39.28,0,0,1,4.08-.18h59a5.41,5.41,0,0,1,5.41,5.41v38.22a5.4,5.4,0,0,1-5.41,5.39Z" style="fill: #6c2bd9"/>
    <path d="M159.78,320.32a127.18,127.18,0,0,0,59.09,33.5V400.6a173.21,173.21,0,0,1,0-340.8c2.16-.4,4.33-.77,6.53-1.06a173.5,173.5,0,0,1,49,0c2.2.29,4.38.66,6.53,1.06a171.84,171.84,0,0,1,73.53,32.35,166.8,166.8,0,0,1,17.88,15.59l-17.88,17.89L340,140.07A127.22,127.22,0,0,0,281,106.57q-3.22-.81-6.53-1.47a129,129,0,0,0-49,0c-2.2.44-4.37.93-6.53,1.47a127.45,127.45,0,0,0-59.09,213.75Z" style="fill: #6c2bd9"/>
    <path d="M177.2,205.69h58.37c-8.41,7.79-39.33,32.07-56.12,24.36C160.26,221.26,177.2,205.69,177.2,205.69Z" style="fill: #6c2bd9"/>
    <path d="M423.1,230.19a175.14,175.14,0,0,1-1.72,24.51,172.52,172.52,0,0,1-49,97.95,168,168,0,0,1-17.88,15.6A171.72,171.72,0,0,1,281,400.6V353.82A127.51,127.51,0,0,0,375,254.7H354.48v-49h66.9A175.32,175.32,0,0,1,423.1,230.19Z" style="fill: #6c2bd9"/>
  </g>
</svg>
