<?xml version="1.0" standalone="no"?>
<!DOCTYPE svg PUBLIC "-//W3C//DTD SVG 20010904//EN"
 "http://www.w3.org/TR/2001/REC-SVG-20010904/DTD/svg10.dtd">
<svg version="1.0" xmlns="http://www.w3.org/2000/svg"
 width="500.000000pt" height="500.000000pt" viewBox="0 0 500.000000 500.000000"
 preserveAspectRatio="xMidYMid meet">
<metadata>
Created by potrace 1.11, written by Peter Selinger 2001-2013
</metadata>
<g transform="translate(0.000000,500.000000) scale(0.100000,-0.100000)"
fill="#000000" stroke="none">
<path d="M2310 4423 c-79 -9 -280 -54 -355 -79 -464 -154 -843 -498 -1040
-943 -48 -107 -109 -303 -120 -384 -4 -27 -9 -59 -11 -70 -16 -77 -21 -328 -9
-427 6 -53 9 -71 20 -142 11 -68 47 -195 82 -288 182 -487 578 -871 1065
-1033 80 -27 134 -42 178 -51 14 -3 35 -7 48 -10 l22 -5 -2 236 -3 236 -74 23
c-441 139 -793 543 -866 994 -3 19 -8 47 -11 62 -8 39 -8 242 1 308 64 524
445 952 961 1084 34 9 86 19 115 23 67 10 309 10 369 1 244 -36 486 -149 668
-313 l54 -48 159 159 c87 87 159 162 159 166 0 27 -225 202 -360 280 -141 80
-346 162 -463 184 -17 3 -36 7 -42 8 -5 2 -26 6 -45 9 -19 4 -48 10 -65 13
-36 7 -385 13 -435 7z"/>
<path d="M1739 2908 c-56 -78 -43 -155 31 -197 93 -52 224 -24 395 87 84 54
185 130 185 140 0 4 -131 7 -292 7 l-291 0 -28 -37z"/>
<path d="M2705 2942 c-113 -16 -227 -75 -300 -153 -51 -56 -105 -150 -122
-214 -4 -17 -9 -466 -10 -999 -3 -896 -2 -970 13 -987 16 -17 35 -19 209 -19
149 0 195 3 211 14 19 14 19 35 19 868 l0 853 24 40 c32 53 67 82 114 95 22 7
136 11 272 11 179 1 238 4 252 14 16 12 18 33 20 225 1 117 -1 218 -4 226 -3
7 -15 17 -26 21 -21 6 -629 12 -672 5z"/>
<path d="M3550 2940 c-4 -3 -7 -113 -6 -245 l1 -240 80 -2 c44 -1 90 -2 102
-3 21 0 21 -1 8 -57 -98 -412 -420 -762 -833 -902 -34 -11 -69 -21 -77 -21
-11 0 -15 -13 -16 -52 -1 -53 -1 -393 0 -415 1 -6 9 -10 19 -8 355 73 658 237
907 491 259 263 421 587 480 962 14 89 15 452 2 482 -6 13 -52 15 -333 15
-179 0 -329 -2 -334 -5z"/>
</g>
</svg>
